<?xml version="1.0" encoding="UTF-8"?>
<svg width="512px" height="512px" viewBox="0 0 512 512" version="1.1" xmlns="http://www.w3.org/2000/svg" xmlns:xlink="http://www.w3.org/1999/xlink">
    <!-- Generator: Sketch 52.5 (67469) - http://www.bohemiancoding.com/sketch -->
    <title>Group Copy 2</title>
    <desc>Created with Sketch.</desc>
    <defs>
        <linearGradient x1="-2.22044605e-14%" y1="50%" x2="100%" y2="50%" id="linearGradient-1">
            <stop stop-color="#929297" offset="0%"></stop>
            <stop stop-color="#88878D" offset="78.0357361%"></stop>
            <stop stop-color="#BAB9C6" offset="100%"></stop>
        </linearGradient>
        <linearGradient x1="-1.11022302e-14%" y1="50%" x2="100%" y2="50%" id="linearGradient-2">
            <stop stop-color="#919FB7" offset="0%"></stop>
            <stop stop-color="#F8FAFE" offset="100%"></stop>
        </linearGradient>
    </defs>
    <g id="Page-1" stroke="none" stroke-width="1" fill="none" fill-rule="evenodd">
        <g id="Group-Copy-2">
            <path d="M250.303703,116.989429 C163.679332,116.63308 87.0976024,160.224299 40.746422,226.400947 C21.9766959,253.190408 8.1623505,283.751466 0.646043898,316.727343 C0.217786682,310.674835 0,304.563832 0,298.401691 C0,157.810778 113.366112,43.8393235 253.209908,43.8393235 C405.149346,43.8393235 512,149.295669 512,279.382664 C512,380.668983 447.224466,467.023588 356.328307,500.295983 C334.237301,507.871604 311.665915,512 288.135412,512 C178.832079,512 84.4033026,422.918863 84.4033026,313.031712 C84.4033026,294.153039 87.0186017,275.888464 97.7257495,258.584195 C93.7078049,269.25776 93.1346788,277.178928 93.1346788,285.234672 C93.1346788,376.537967 169.667844,447.627907 260.486055,447.627907 C351.304266,447.627907 424.926972,373.611963 424.926972,282.308668 C424.926972,204.986902 372.12594,140.063348 300.795482,121.992666 C286.255439,119.069769 271.390327,117.058722 250.303703,116.989429 Z" id="Combined-Shape-Copy-34" fill="url(#linearGradient-1)" transform="translate(256.000000, 277.919662) scale(-1, -1) translate(-256.000000, -277.919662) "></path>
            <path d="M250.303703,73.1501057 C163.679332,72.7937567 87.0976024,116.384976 40.746422,182.561624 C21.9766959,209.351084 8.1623505,239.912143 0.646043898,272.88802 C0.217786682,266.835511 0,260.724509 0,254.562368 C0,113.971454 113.366112,1.5659541e-14 253.209908,0 C405.149346,0 512,105.456346 512,235.54334 C512,336.82966 447.224466,423.184264 356.328307,456.45666 C334.237301,464.032281 311.665915,468.160677 288.135412,468.160677 C178.832079,468.160677 84.4033026,379.07954 84.4033026,269.192389 C84.4033026,250.313716 87.0186017,232.049141 97.7257495,214.744871 C93.7078049,225.418436 93.1346788,233.339605 93.1346788,241.395349 C93.1346788,332.698643 169.667844,403.788584 260.486055,403.788584 C351.304266,403.788584 424.926972,329.772639 424.926972,238.469345 C424.926972,161.147578 372.12594,96.2240244 300.795482,78.1533428 C286.255439,75.2304457 271.390327,73.2193983 250.303703,73.1501057 Z" id="Combined-Shape-Copy-41" fill="url(#linearGradient-2)"></path>
        </g>
    </g>
</svg>